<svg height="48pt" viewBox="0 0 48 48" width="48pt" xmlns="http://www.w3.org/2000/svg" xmlns:xlink="http://www.w3.org/1999/xlink"><linearGradient id="a"><stop offset="0" stop-color="#11998e"/><stop offset=".99130434783" stop-color="#38ef7d"/></linearGradient><linearGradient id="b" gradientTransform="matrix(30.8 0 0 48.61 -.04 -.24)" gradientUnits="userSpaceOnUse" x1=".994118" x2=".000181" xlink:href="#a" y1=".480156" y2=".452131"/><linearGradient id="c" x1=".994118" x2="-4.831911" xlink:href="#a" y1=".480156" y2=".707333"/><linearGradient id="d"><stop offset=".34940980668" stop-color="#b2e56b"/><stop offset=".53849222448" stop-color="#c2e964"/><stop offset=".90405156556" stop-color="#ecf451"/><stop offset="1" stop-color="#faf74b"/></linearGradient><linearGradient id="e" gradientTransform="matrix(16.3 0 0 11.89 23.23 -.12)" gradientUnits="userSpaceOnUse" x1="1.562714" x2="-.052491" xlink:href="#d" y1=".543163" y2=".538958"/><linearGradient id="f" gradientTransform="matrix(37.38 0 0 29.74 12 18.42)" gradientUnits="userSpaceOnUse" x1="1.562714" x2="-.052491" xlink:href="#d" y1=".543163" y2=".538958"/><linearGradient id="g" gradientUnits="userSpaceOnUse" x1="54.818706" x2="7.977761" xlink:href="#d" y1="25.251727" y2="25.129782"/><path d="m16.89 42.34 1.66-1.11 4.074 1.77-3.514 2.66-4.07 2.71-15.08-9.28 1.09-31.45 19.14-7.88 8.87 5.54 1.7 1.06-2.12 3.4-1.7-1.06-7.13-4.46-14.86 6.12-.91 26.55 10.92 6.72z" fill="url(#b)"/><path d="m39 12 8 7-3 7" fill="none" stroke="url(#c)" stroke-linecap="square" stroke-miterlimit="3" stroke-width="4"/><path d="m27.11 10.66-1.66 1.11-2.22-3.32 1.66-1.11 11.18-7.46 2.83 8.49.63 1.89-3.79 1.27-.64-1.9-1.17-3.51z" fill="url(#e)"/><path d="m39.63 23.9-1.89.63-1.27-3.79 1.9-.64 5.05-1.68 5.96 23.85-16.48 5.89-15.75-7.35-5.15-2.81 5.03-1.66 1.82.85 14.25 6.65 11.52-4.11-4.04-16.15z" fill="url(#f)"/><path d="m35.978 31.218c0-.695.565-1.26 1.261-1.26.696 0 1.261.565 1.261 1.26v4.13c0 1.74-1.412 3.152-3.152 3.152h-22.696c-1.74 0-3.152-1.412-3.152-3.152v-11.978c0-.696.565-1.261 1.261-1.261.696 0 1.261.565 1.261 1.261v10.717c0 1.044.847 1.891 1.891 1.891h20.174c1.044 0 1.891-.847 1.891-1.891zm-23.956-14.436c0 .695-.565 1.26-1.261 1.26-.696 0-1.261-.565-1.261-1.26v-4.13c0-1.74 1.412-3.152 3.152-3.152h22.696c1.74 0 3.152 1.412 3.152 3.152v12.495c0 .696-.565 1.261-1.261 1.261-.696 0-1.261-.565-1.261-1.261v-11.234c0-1.044-.847-1.891-1.891-1.891h-20.174c-1.044 0-1.891.847-1.891 1.891zm1.978 13.718h9v2.5h-9zm2.288-13.564v3.204h.753q1.055 0 1.579-.417.524-.417.524-1.214 0-.805-.439-1.189-.439-.384-1.376-.384zm10.787-.125q-1.292 0-2 .971-.709.97-.709 2.705 0 3.609 2.709 3.609 1.137 0 2.753-.569v1.919q-1.329.554-2.967.554-2.354 0-3.602-1.428-1.247-1.428-1.247-4.1 0-1.683.612-2.949.613-1.266 1.761-1.941 1.147-.675 2.69-.675 1.572 0 3.159.76l-.738 1.86q-.605-.288-1.218-.502-.613-.214-1.203-.214zm-5.62 1.616q0 1.742-1.089 2.665-1.089.922-3.096.922h-.982v3.838h-2.288v-10.79h3.447q1.963 0 2.985.845 1.023.845 1.023 2.52z" fill="url(#g)" fill-rule="evenodd"/></svg>