<svg height="48pt" viewBox="0 0 48 48" width="48pt" xmlns="http://www.w3.org/2000/svg" xmlns:xlink="http://www.w3.org/1999/xlink"><linearGradient id="a"><stop offset="0" stop-color="#0ff"/><stop offset=".98260869565" stop-color="#a553a8"/></linearGradient><linearGradient id="b" gradientTransform="matrix(46.5 0 0 41 1 3.5)" gradientUnits="userSpaceOnUse" x1="0" x2="1" xlink:href="#a" y1=".5" y2=".5"/><linearGradient id="c" gradientTransform="matrix(14.06 0 0 18.12 10.19 13.69)" gradientUnits="userSpaceOnUse" x1="0" x2="1" xlink:href="#a" y1=".5" y2=".5"/><path d="m27.722 32.15c-1.141 0-2.067-.896-2.067-2 0-1.104.926-2 2.067-2h16.728c1.684 0 3.05 1.366 3.05 3.05v4.3c0 2.39-.982 4.68-2.728 6.36-1.736 1.69-4.102 2.64-6.572 2.64h-27.9c-2.47 0-4.836-.95-6.572-2.64-1.746-1.68-2.728-3.97-2.728-6.36v-23c0-2.39.982-4.68 2.728-6.36 1.736-1.69 4.102-2.64 6.572-2.64h27.9c2.47 0 4.836.95 6.572 2.64 1.746 1.68 2.728 3.97 2.728 6.36v4.34c0 1.104-.926 2-2.067 2-1.14 0-2.066-.896-2.066-2v-4.34c0-1.33-.548-2.6-1.509-3.54-.971-.93-2.284-1.46-3.658-1.46h-27.9c-1.374 0-2.687.53-3.658 1.46-.961.94-1.509 2.21-1.509 3.54v23c0 1.33.548 2.6 1.509 3.54.971.93 2.284 1.46 3.658 1.46h27.9c1.374 0 2.687-.53 3.658-1.46.961-.94 1.509-2.21 1.509-3.54v-3.35z" fill="url(#b)"/><path d="m11.77 18.08c-.872-.684-1.027-1.946-.345-2.815.682-.869 1.938-1.024 2.805-.345l7.656 5.983c1.305 1.019 1.305 2.675 0 3.694l-7.656 5.983c-.867.679-2.123.524-2.805-.345-.682-.869-.527-2.131.345-2.815l5.98-4.67z" fill="url(#c)"/></svg>