<svg height="48pt" viewBox="0 0 48 48" width="48pt" xmlns="http://www.w3.org/2000/svg" xmlns:xlink="http://www.w3.org/1999/xlink"><linearGradient id="a" gradientTransform="scale(48 47.249)" gradientUnits="userSpaceOnUse" x1="0" x2="1" y1=".5" y2=".5"><stop offset="0" stop-color="#43e97b"/><stop offset=".97826086957" stop-color="#38f9d7"/></linearGradient><path d="m29.805 21v6l-4.285-3zm0-9-8.825 8.824-6.175-4.324-3 1.5 6 6-6 6 3 1.5 6.175-4.324 8.825 8.824 6-3v-18zm-10.995 31.32c1.065.287 1.697 1.385 1.41 2.45-.287 1.065-1.385 1.697-2.45 1.41-5.1-1.37-9.61-4.39-12.82-8.58s-4.95-9.32-4.95-14.6c0-6.36 2.53-12.47 7.03-16.97s10.61-7.03 16.97-7.03 12.47 2.53 16.97 7.03 7.03 10.61 7.03 16.97c0 5.26-1.73 10.37-4.91 14.55-3.19 4.18-7.66 7.2-12.73 8.6-1.065.293-2.167-.335-2.46-1.4-.293-1.065.335-2.167 1.4-2.46 4.22-1.16 7.95-3.68 10.61-7.16 2.65-3.49 4.09-7.75 4.09-12.13 0-5.3-2.11-10.39-5.86-14.14s-8.84-5.86-14.14-5.86-10.39 2.11-14.14 5.86-5.86 8.84-5.86 14.14c0 4.4 1.45 8.68 4.13 12.17 2.67 3.49 6.43 6.01 10.68 7.15z" fill="url(#a)" fill-rule="evenodd"/></svg>