<svg height="48pt" viewBox="0 0 48 48" width="48pt" xmlns="http://www.w3.org/2000/svg" xmlns:xlink="http://www.w3.org/1999/xlink"><linearGradient id="a" gradientTransform="matrix(28.17 0 0 39.35 -.07 -.05)" gradientUnits="userSpaceOnUse" x1=".579576" x2=".329667" y1="-.014163" y2="1.037451"><stop offset="0" stop-color="#ff318c"/><stop offset="1" stop-color="#8700ff"/></linearGradient><linearGradient id="b"><stop offset="0" stop-color="#d300dc"/><stop offset="1" stop-color="#8700ff"/></linearGradient><linearGradient id="c" gradientTransform="matrix(36.64 0 0 25.75 11.92 22.37)" gradientUnits="userSpaceOnUse" x1="-.000038" x2=".999962" xlink:href="#b" y1=".5" y2=".5"/><linearGradient id="d" gradientTransform="matrix(28.02 0 0 28.06 20.17 .73)" gradientUnits="userSpaceOnUse" x1="-.000038" x2=".999962" xlink:href="#b" y1=".5" y2=".5"/><linearGradient id="e" gradientUnits="userSpaceOnUse" x1="7.8737745" x2="51.37499325" xlink:href="#b" y1="24" y2="21.999984"/><path d="m9 35.3h1l1 4h-2-6.23l-2.84-30.7 7.35-8.65 18.38 1 1.71 4.31.73 1.86-3.72 1.48-.73-1.86-.76-1.93-13.85-.76-4.97 5.86 2.35 25.39z" fill="url(#a)"/><path d="m39.16 25.79-.79-1.84 3.68-1.58.79 1.84 5.72 13.97-18.16 9.94-18.48-4.14v-3.98-2h4v2 .78l13.88 3.1 13.64-7.46z" fill="url(#c)"/><path d="m26 9.2-1.62 1.479-4.21-1.479 1.44-1.38 7.36-7.09 14.38 2.6 4.84 17.22-4.81 6.63-1.18 1.61-3.23-2.35 1.17-1.62 3.67-5.05-3.64-12.95-9.9-1.79z" fill="url(#d)"/><path d="m37.321 15.973c0 .773.628 1.402 1.402 1.402.774 0 1.402-.629 1.402-1.402v-4.593c0-1.934-1.571-3.505-3.505-3.505h-25.24c-1.934 0-3.505 1.571-3.505 3.505v13.321c0 .774.628 1.402 1.402 1.402.774 0 1.402-.628 1.402-1.402v-11.918c0-1.161.943-2.104 2.104-2.104h22.434c1.161 0 2.104.943 2.104 2.104zm-26.642 16.054c0-.773-.628-1.402-1.402-1.402-.774 0-1.402.629-1.402 1.402v4.593c0 1.934 1.571 3.505 3.505 3.505h25.24c1.934 0 3.505-1.571 3.505-3.505v-13.896c0-.774-.628-1.402-1.402-1.402-.774 0-1.402.628-1.402 1.402v12.493c0 1.161-.943 2.104-2.104 2.104h-22.434c-1.161 0-2.104-.943-2.104-2.104zm2.321 1.23h11.109v1.852h-11.109zm4.731-14.057c1.372 0 2.126-.823 2.126-1.851v-.069c0-1.234-.823-1.851-2.194-1.851h-2.057v3.771zm5.555 4.389 1.577-1.92c1.097.891 2.263 1.508 3.703 1.508 1.097 0 1.783-.411 1.783-1.166v-.068c0-.686-.412-1.029-2.469-1.577-2.469-.617-4.114-1.303-4.114-3.772v-.068c0-2.263 1.783-3.703 4.32-3.703 1.783 0 3.36.548 4.594 1.577l-1.44 2.057c-1.097-.754-2.194-1.234-3.223-1.234-1.028 0-1.577.48-1.577 1.097v.069c0 .822.549 1.097 2.674 1.645 2.469.686 3.909 1.577 3.909 3.703v.069c0 2.468-1.852 3.84-4.526 3.84-1.851-.069-3.703-.755-5.211-2.057zm-10.423-10.56h5.006c2.948 0 4.731 1.714 4.731 4.251v.069c0 2.88-2.194 4.32-5.006 4.32h-2.057v3.702h-2.674z" fill="url(#e)" fill-rule="evenodd"/></svg>