<svg height="48pt" viewBox="0 0 48 48" width="48pt" xmlns="http://www.w3.org/2000/svg" xmlns:xlink="http://www.w3.org/1999/xlink"><linearGradient id="a"><stop offset="0" stop-color="#5433ff"/><stop offset=".51739130435" stop-color="#20bdff"/><stop offset=".98260869565" stop-color="#a5fecb"/></linearGradient><linearGradient id="b" gradientTransform="matrix(10.051 0 0 11.96 24.774 6.509)" gradientUnits="userSpaceOnUse" x1="-1.771964" x2="2.20238" xlink:href="#a" y1=".417224" y2=".438497"/><linearGradient id="c" gradientTransform="matrix(46.43 0 0 35.001 .785 6.499)" gradientUnits="userSpaceOnUse" x1="0" x2="1" xlink:href="#a" y1=".5" y2=".5"/><path d="m24.915 18.459c.01-.63-.04-1.25-.14-1.87-.03-2.66 1-5.23 2.88-7.13 1.87-1.89 4.51-2.95 7.17-2.95l-.08 2.99c-1.83 0-3.59.72-4.89 2.01-1.31 1.28-2.05 3.03-2.08 4.86.1.69.15 1.39.14 2.1" fill="url(#b)"/><path d="m34.825 6.509h-.06zm-8.45 28.98-.12-.01.25-.01-.09.01zm-16.39-8.98c-.02-.01-.03-.02-.04-.03zm-.09-13.69c.51.51 1.03 1.01 1.58 1.48 1.21 1.07 2.54 1.98 3.97 2.74 1.57.82 3.25 1.43 4.98 1.82 2.05.44 4.13.66 6.23.64h.06l.16.01.37-.01c1.71.01 3.36.7 4.58 1.91 1.21 1.22 1.89 2.87 1.89 4.59s-.68 3.37-1.89 4.58c-1.21 1.22-2.86 1.91-4.57 1.92l-.32-.02-.18.01-.07.01-.41-.02-.17.02h-.02-6.72c-.79-.03-1.57-.17-2.31-.44-.83-.29-1.62-.68-2.36-1.16-.28-.19-.55-.38-.81-.6 4.46.78 9.04-.54 12.41-3.56-1.76 1.07-3.78 1.62-5.84 1.57s-4.06-.68-5.76-1.84c-.88-.57-1.7-1.22-2.45-1.95-.73-.68-1.35-1.47-1.85-2.32.02 0 .04 0 .06.01 2.72.57 5.53.51 8.22-.19-2.18-.8-4.23-1.94-6.07-3.36-.54-.42-1.05-.88-1.52-1.38-.41-.44-.76-.92-1.03-1.45-.22-.41-.33-.85-.34-1.31 0-.57.06-1.14.18-1.7zm4.713 21.446c-.145.046-.332.122-.543.214-1.54.68-3.21 1.04-4.9 1.06-2.97 0-5.87-.84-8.38-2.43 2.98 3.9 7.24 6.63 12.04 7.67 2.3.5 4.64.74 7 .72 3.67.03 7.3-.74 10.65-2.25 2.99-1.37 5.65-3.35 7.84-5.81 2.05-2.31 3.67-4.98 4.77-7.88 1.06-2.75 1.61-5.66 1.63-8.6 0-.02 0-.03 0-.05v-.18l-.01-.08.01-.1c0-.03 0-.05 0-.08 0-.211-.007-.422-.019-.632.95-.857 1.817-1.818 2.519-2.838-.872.376-1.858.612-2.867.769-.091-.292-.188-.583-.322-.859 1.001-.775 1.842-1.705 2.239-2.91-.916.528-1.982.921-3.086 1.213-.253-.449-.562-.868-.904-1.263-1.57-1.81-3.74-3-6.11-3.34l-.33-.05-.35-.02-.14-.02-.37-.02h-.12-.03v.01h.11l-.08-.01-.03.01-.17 2.99.2.01.1-.01h.04.05-.18.09l.14.01.14.02.27.02.22.03h.01c1.65.24 3.16 1.06 4.26 2.32 1.1 1.25 1.71 2.86 1.72 4.53l-.01.18.01.2v.15c-.02 2.58-.5 5.12-1.43 7.52-.97 2.56-2.4 4.93-4.22 6.97-1.9 2.14-4.23 3.87-6.83 5.07-2.96 1.33-6.17 2.01-9.42 1.98-2.11.02-4.22-.19-6.28-.63.59-.18 1.17-.4 1.74-.65 1.14-.494 2.236-1.08 3.275-1.76.248.018.496.034.745.04h.05 6.88l.15-.01.31.01.23-.01h.04l.18.01h.08c2.52 0 4.94-1 6.72-2.78s2.78-4.2 2.78-6.72-1-4.94-2.78-6.72-4.2-2.78-6.72-2.78c-.02 0-.04 0-.05 0l-.25.01h-.03l-.12-.01c-.03 0-.06 0-.1 0-1.88.02-3.75-.17-5.59-.57-1.48-.33-2.9-.85-4.24-1.54-1.21-.65-2.35-1.44-3.38-2.34-1.54-1.36-2.95-2.86-4.19-4.49-1.12 1.19-1.89 2.67-2.23 4.27-.21.89-.32 1.79-.32 2.71.01.93.24 1.85.68 2.67.23.45.49.87.79 1.27-.38.01-.74.17-1.01.44-.26.27-.42.63-.43 1.01v.02.1.07c.04 1.28.41 2.52 1.07 3.61.59 1 1.31 1.93 2.13 2.75-.49.03-.97.13-1.43.31.21 1.66.92 3.2 2.03 4.45.73.83 1.58 1.56 2.51 2.16.497.328 1.013.622 1.553.866zm20.607-20.266c0-1.103.896-2 2-2s2 .897 2 2c0 1.104-.896 2-2 2s-2-.896-2-2z" fill="url(#c)" fill-rule="evenodd"/></svg>