<svg height="48pt" viewBox="0 0 48 48" width="48pt" xmlns="http://www.w3.org/2000/svg" xmlns:xlink="http://www.w3.org/1999/xlink"><linearGradient id="a"><stop offset="0" stop-color="#11998e"/><stop offset=".99130434783" stop-color="#38ef7d"/></linearGradient><linearGradient id="b" gradientTransform="matrix(33.608 0 0 36.97 6.755 9.03)" gradientUnits="userSpaceOnUse" x1="0" x2="1" xlink:href="#a" y1=".5" y2=".5"/><linearGradient id="c" gradientUnits="userSpaceOnUse" x1="0" x2="48" xlink:href="#a" y1="24" y2="24"/><g fill-rule="evenodd"><path d="m33.923 31.233 5.99 10.39c.094.168.15.337.169.525l.281 3.467c0 .131-.056.244-.169.319-.112.056-.243.056-.356-.019l-2.886-1.968c-.15-.094-.281-.225-.375-.394l-5.779-9.986c-2.135 1.197-4.607 1.89-7.228 1.89-2.624 0-5.098-.694-7.235-1.893l-5.791 10.027c-.094.15-.225.281-.375.393l-2.886 1.95c-.113.075-.244.093-.356.018-.113-.075-.188-.187-.169-.318l.262-3.486c.019-.188.075-.357.169-.525l11.714-20.279 2.83 2.83-3.486 6.054c1.556.862 3.374 1.368 5.304 1.368 1.931 0 3.749-.488 5.323-1.368l-3.486-6.054 2.83-2.83 3.703 6.396c1.662-1.947 2.669-4.453 2.669-7.184l3.842.019c0 4.176-1.74 7.959-4.509 10.658zm-10.353-10.677h-.019c-1.574 0-2.867-1.293-2.867-2.886s1.293-2.886 2.867-2.886v-.038l.019.038c1.574.019 2.867 1.293 2.867 2.886s-1.293 2.868-2.867 2.886zm3.58-7.665h-1.2v-3.842-.019h-2.399-2.38v.019 3.842h-1.218c-1.181 0-2.156.975-2.156 2.155v4.892h.019c-.019.187.094.394.337.637l4.33 4.33c.3.3.693.45 1.068.45v-.019l.019.019c.393 0 .787-.15 1.068-.45l4.33-4.33c.243-.243.337-.468.337-.637h.019v-4.873c-.019-1.199-.975-2.174-2.174-2.174z" fill="url(#b)"/><path d="m6.48 33.65c.535.966.186 2.185-.78 2.72-.966.535-2.185.181-2.72-.79-1.96-3.54-2.98-7.53-2.98-11.58 0-6.36 2.53-12.47 7.03-16.97s10.61-7.03 16.97-7.03 12.47 2.53 16.97 7.03 7.03 10.61 7.03 16.97c0 4.05-1.02 8.04-2.98 11.58-.535.971-1.754 1.325-2.72.79-.966-.535-1.315-1.754-.78-2.72 1.63-2.95 2.48-6.27 2.48-9.65 0-5.3-2.11-10.39-5.86-14.14s-8.84-5.86-14.14-5.86-10.39 2.11-14.14 5.86-5.86 8.84-5.86 14.14c0 3.38.85 6.7 2.48 9.65zm24.27 9.03c1.032-.397 2.19.116 2.585 1.145.395 1.029-.123 2.188-1.155 2.585-2.74 1.05-5.66 1.59-8.6 1.59-2.89 0-5.77-.52-8.48-1.54-1.032-.392-1.554-1.548-1.165-2.58.389-1.032 1.543-1.556 2.575-1.17 2.26.86 4.66 1.29 7.07 1.29 2.45 0 4.88-.45 7.17-1.32z" fill="url(#c)"/></g></svg>