<svg height="48pt" viewBox="0 0 48 48" width="48pt" xmlns="http://www.w3.org/2000/svg" xmlns:xlink="http://www.w3.org/1999/xlink"><linearGradient id="a" gradientTransform="matrix(25.46 0 0 30.4 22.31 18.28)" gradientUnits="userSpaceOnUse" x1=".835366" x2=".58824" y1=".005" y2="1.053678"><stop offset="0" stop-color="#3494e6"/><stop offset=".98695652174" stop-color="#ec6ead"/></linearGradient><linearGradient id="b" gradientTransform="matrix(33.67 0 0 47.5 -.31 1)" gradientUnits="userSpaceOnUse" x1=".67181" x2=".738009" y1=".02057" y2=".874054"><stop offset="0" stop-color="#1a6cff"/><stop offset=".98260869565" stop-color="#b34cf3"/></linearGradient><linearGradient id="c" gradientTransform="matrix(13.47 0 0 16.64 36 9.28)" gradientUnits="userSpaceOnUse" x1=".399802" x2=".365068" y1=".202422" y2="1.118531"><stop offset="0" stop-color="#43e97b"/><stop offset=".97826086957" stop-color="#38f9d7"/></linearGradient><linearGradient id="d" gradientUnits="userSpaceOnUse" x1="11.295013" x2="38.981516" y1="13.767698" y2="46.443274"><stop offset="0" stop-color="#16b5e4"/><stop offset=".98260869565" stop-color="#f520fa"/></linearGradient><path d="m39.25 21.96-.97-1.75 3.51-1.93.96 1.76 5.02 9.14-10.15 19.5-13.53-6.9-1.78-.91 1.82-3.56 1.78.91 10 5.1 7.32-14.09z" fill="url(#a)"/><path d="m21.91 39.88 1.42-1.41 6.03-.47-4.62 4.71-5.79 5.79-19.26-11.23 5.89-9.2-5.44-7.44 10.57-19.63h18.65l3.27 8.27.73 1.86-3.72.892-.73-1.292-2.27-5.73h-13.54l-8.24 15.31 5.56 7.62-5.11 7.99 12.99 7.58z" fill="url(#b)"/><path d="m39.67 14.39-1.98.22-.45-3.97 1.99-.22 10.24-1.14-9.68 14.96-1.09 1.68-2.7-3.285 1.24-1.635 4.29-6.81z" fill="url(#c)"/><path d="m35.978 31.218c0-.695.565-1.26 1.261-1.26.696 0 1.261.565 1.261 1.26v4.13c0 1.74-1.412 3.152-3.152 3.152h-22.696c-1.74 0-3.152-1.412-3.152-3.152v-11.978c0-.696.565-1.261 1.261-1.261.696 0 1.261.565 1.261 1.261v10.717c0 1.044.847 1.891 1.891 1.891h20.174c1.044 0 1.891-.847 1.891-1.891zm-23.956-14.436c0 .695-.565 1.26-1.261 1.26-.696 0-1.261-.565-1.261-1.26v-4.13c0-1.74 1.412-3.152 3.152-3.152h22.696c1.74 0 3.152 1.412 3.152 3.152v12.495c0 .696-.565 1.261-1.261 1.261-.696 0-1.261-.565-1.261-1.261v-11.234c0-1.044-.847-1.891-1.891-1.891h-20.174c-1.044 0-1.891.847-1.891 1.891zm6.494 4.448v-1.821h4.094v5.35q-.995.325-1.874.456-.879.13-1.796.13-2.337 0-3.568-1.373-1.232-1.373-1.232-3.942 0-2.499 1.429-3.896 1.43-1.398 3.964-1.398 1.588 0 3.063.636l-.727 1.75q-1.129-.565-2.351-.565-1.418 0-2.272.953-.854.953-.854 2.563 0 1.679.688 2.565.688.886 2.001.886.684 0 1.39-.141v-2.153zm7.663-1.2q0 1.729.656 2.605.657.875 1.962.875 2.619 0 2.619-3.48 0-3.487-2.604-3.487-1.306 0-1.97.879-.663.879-.663 2.608zm7.531 0q0 2.562-1.27 3.939-1.271 1.376-3.643 1.376-2.371 0-3.642-1.376-1.27-1.377-1.27-3.953 0-2.576 1.274-3.935 1.274-1.359 3.653-1.359 2.378 0 3.638 1.37 1.26 1.369 1.26 3.938zm-19.71 10.47h9v2.5h-9z" fill="url(#d)" fill-rule="evenodd"/></svg>