<svg height="48pt" viewBox="0 0 48 48" width="48pt" xmlns="http://www.w3.org/2000/svg" xmlns:xlink="http://www.w3.org/1999/xlink"><linearGradient id="a" gradientTransform="matrix(47.043 0 0 47.009 .423 .55)" gradientUnits="userSpaceOnUse" x1="0" x2="1" y1=".5" y2=".5"><stop offset="0" stop-color="#ff5f6d"/><stop offset=".98260869565" stop-color="#ffc371"/></linearGradient><path d="m42.097 17.668c-.393-1.113.192-2.336 1.305-2.728 1.113-.393 2.335.192 2.728 1.305 1.669 4.743 1.779 9.907.31 14.715-.342 1.132-1.537 1.772-2.667 1.428-1.131-.344-1.771-1.542-1.429-2.674 1.207-3.943 1.117-8.155-.247-12.046zm-5.005-7.988c.813.747 2.079.693 2.826-.12.747-.813.693-2.079-.12-2.826-4.243-3.895-9.774-6.093-15.53-6.182-5.763-.081-11.355 1.948-15.714 5.72-.836.723-.928 1.988-.205 2.824.722.836 1.988.928 2.824.205 3.611-3.128 8.261-4.817 13.033-4.741 4.779.068 9.362 1.892 12.886 5.12zm-31.277 7.132c.41-1.027-.09-2.194-1.117-2.605-1.027-.41-2.194.09-2.604 1.117-1.953 4.913-2.202 10.343-.703 15.417.313 1.058 1.427 1.663 2.485 1.35 1.058-.313 1.663-1.426 1.35-2.485-1.247-4.213-1.041-8.714.589-12.794zm4.386 21.106c-.798-.763-2.065-.734-2.828.064-.762.798-.734 2.065.064 2.828l.477.456c.007.007.015.013.022.02 4.333 4.02 10.028 6.261 15.937 6.273s11.621-2.205 15.964-6.21c.808-.749.859-2.016.113-2.828-.745-.811-2.012-.862-2.827-.113-3.598 3.319-8.333 5.16-13.237 5.153s-9.623-1.861-13.215-5.194zm2.028-21.998v15.955h-3.128v-15.955zm9.638 11.587v-.944l-1.21.041q-1.364.042-2.03.493-.667.451-.667 1.374 0 1.322 1.518 1.322 1.087 0 1.738-.625.651-.626.651-1.661zm11.7-4.809q-1.159 0-1.692.712-.533.713-.554 2.354v.338q0 1.846.549 2.646.548.799 1.738.799.964 0 1.533-.887.569-.887.569-2.578 0-1.692-.574-2.538-.574-.846-1.569-.846zm-8.593 9.177h-2.184l-.605-1.559h-.082q-.79.995-1.625 1.38-.836.384-2.179.384-1.651 0-2.6-.943-.948-.944-.948-2.687 0-1.825 1.277-2.691 1.276-.867 3.85-.959l1.989-.062v-.502q0-1.743-1.784-1.743-1.374 0-3.23.83l-1.036-2.112q1.979-1.036 4.389-1.036 2.307 0 3.538 1.005 1.23 1.005 1.23 3.056zm9.598-11.679q2.03 0 3.178 1.584 1.149 1.584 1.149 4.343 0 2.84-1.184 4.398-1.185 1.559-3.225 1.559-2.02 0-3.169-1.466h-.215l-.523 1.261h-2.389v-15.955h3.127v3.712q0 .707-.123 2.266h.123q1.097-1.702 3.251-1.702z" fill="url(#a)" fill-rule="evenodd"/></svg>