<svg height="48pt" viewBox="0 0 48 48" width="48pt" xmlns="http://www.w3.org/2000/svg" xmlns:xlink="http://www.w3.org/1999/xlink"><linearGradient id="a" gradientTransform="matrix(22.02 0 0 32.631 26 13.668)" gradientUnits="userSpaceOnUse" x1=".312213" x2=".701147" y1=".079127" y2="1.071587"><stop offset="0" stop-color="#f7f107"/><stop offset=".83888397938" stop-color="#ffbb24"/></linearGradient><linearGradient id="b" gradientTransform="matrix(31.905 0 0 28.837 .066 19)" gradientUnits="userSpaceOnUse" x1=".910809" x2=".000086" y1=".502821" y2=".465459"><stop offset="0" stop-color="#00ffd8"/><stop offset=".83888397938" stop-color="#00ffb8"/></linearGradient><linearGradient id="c" gradientTransform="matrix(35.112 0 0 27.588 4.25 .116)" gradientUnits="userSpaceOnUse" x1=".804933" x2=".19506" y1="1.148559" y2=".129398"><stop offset="0" stop-color="#ffe53b"/><stop offset=".98695652174" stop-color="#ff005b"/></linearGradient><linearGradient id="d" gradientUnits="userSpaceOnUse" x1="11.249997" x2="41.780973" y1="23.124993" y2="22.616142"><stop offset="0" stop-color="#5433ff"/><stop offset=".51739130435" stop-color="#20bdff"/><stop offset=".98260869565" stop-color="#a5fecb"/></linearGradient><g fill-rule="evenodd"><path d="m41 13.67 4.727-.002c.606 1.241 1.105 2.585 1.468 4.002h-.007c.556 2.045.839 4.161.832 6.29v.08c-.02 6.22-2.46 12.2-6.79 16.66-2.271 2.334-4.973 4.159-7.923 5.395-2.688 1.126-3.851-2.738-1.637-3.653 2.492-1.03 4.773-2.562 6.69-4.532 3.61-3.71 5.65-8.69 5.66-13.88v-.07c.008-2.137-.336-4.261-1.005-6.29h-.015-15-2v-4h2z" fill="url(#a)"/><path d="m24.427 43.751-2.375 4.086c-1.377-.1-2.79-.344-4.198-.743l.004-.006c-2.048-.548-4.018-1.367-5.855-2.444l-.069-.04c-5.367-3.146-9.308-8.262-10.986-14.248-.875-3.137-1.094-6.389-.678-9.561.378-2.89 4.303-1.951 3.98.422-.363 2.672-.186 5.414.553 8.062 1.391 4.986 4.67 9.254 9.151 11.872l.06.035c1.844 1.082 3.852 1.853 5.942 2.295l.008-.013 7.544-12.965 1.005-1.729 3.458 2.012-1.006 1.728z" fill="url(#b)"/><path d="m6.679 14.832-2.429-4.055c.754-1.157 1.65-2.276 2.68-3.315l.004.006c1.47-1.527 3.139-2.856 4.97-3.944l.069-.041c5.347-3.176 11.732-4.153 17.782-2.728 3.17.751 6.122 2.132 8.699 4.029 2.346 1.728-.373 4.71-2.295 3.28-2.163-1.609-4.649-2.78-7.324-3.413-5.037-1.193-10.358-.386-14.817 2.27l-.06.036c-1.838 1.09-3.484 2.476-4.881 4.092l.007.013 7.703 12.871 1.027 1.717-3.433 2.054-1.027-1.717z" fill="url(#c)"/><path d="m13.5 24c0-5.795 4.705-10.5 10.5-10.5s10.5 4.705 10.5 10.5-4.705 10.5-10.5 10.5-10.5-4.705-10.5-10.5zm4 0c0-1.72.69-3.38 1.9-4.6 1.22-1.21 2.88-1.9 4.6-1.9s3.38.69 4.6 1.9c1.21 1.22 1.9 2.88 1.9 4.6s-.69 3.38-1.9 4.6c-1.22 1.21-2.88 1.9-4.6 1.9s-3.38-.69-4.6-1.9c-1.21-1.22-1.9-2.88-1.9-4.6z" fill="url(#d)"/></g></svg>