<svg height="48pt" viewBox="0 0 48 48" width="48pt" xmlns="http://www.w3.org/2000/svg" xmlns:xlink="http://www.w3.org/1999/xlink"><linearGradient id="a" gradientTransform="matrix(44.663 0 0 32 1.668 8.433)" gradientUnits="userSpaceOnUse" x1=".581964" x2=".276189" y1=".778311" y2=".321361"><stop offset="0" stop-color="#1bce89"/><stop offset="1" stop-color="#4e8ed5"/></linearGradient><path d="m19.957 27.825c.832 0 1.508.676 1.508 1.508 0 .832-.676 1.507-1.508 1.507h-6.246c-.416 0-.855.322-.979.719l-1.659 5.279c-.624 1.984-2.819 3.595-4.899 3.595h-1.018c-2.08 0-3.637-1.683-3.476-3.757l1.471-18.915c.161-2.074 1.125-5.005 2.15-6.543 1.026-1.537 3.547-2.785 5.627-2.785h14.442c.832 0 1.508.676 1.508 1.508 0 .832-.676 1.507-1.508 1.507h-14.337c-1.248 0-2.779.779-3.418 1.738-.638.959-1.249 2.746-1.363 3.989l-1.712 18.742c-.076.829.538 1.501 1.37 1.501h.49c.832 0 1.71-.644 1.959-1.438l1.886-5.998c.374-1.19 1.691-2.157 2.939-2.157zm12.745-16.377c-.832 0-1.507-.675-1.507-1.507 0-.832.675-1.508 1.507-1.508h4.37c2.08 0 4.601 1.248 5.627 2.785 1.025 1.538 1.989 4.469 2.15 6.543l1.471 18.915c.161 2.074-1.396 3.757-3.476 3.757h-1.606c-2.08 0-4.489-1.527-5.376-3.409l-2.594-5.502c-.177-.376-.659-.682-1.075-.682h-5.932c-.832 0-1.507-.675-1.507-1.507 0-.832.675-1.508 1.507-1.508h6.882c.832 0 1.795.611 2.15 1.364l3.237 6.866c.355.752 1.318 1.363 2.15 1.363h1.41c.832 0 1.446-.672 1.37-1.501l-1.712-18.742c-.114-1.243-.725-3.03-1.363-3.989-.639-.959-2.17-1.738-3.418-1.738zm-22.408 7.22v1.972h2.476c.403 0 .73.327.73.73v2.476h1.971v-2.477c0-.403.327-.73.73-.73h2.477v-1.97h-2.477c-.403 0-.73-.327-.73-.73v-2.477h-1.971v2.476c0 .403-.327.73-.73.73zm24.726.762c0-.828.672-1.5 1.5-1.5s1.5.672 1.5 1.5-.672 1.5-1.5 1.5-1.5-.672-1.5-1.5zm-6 0c0-.828.672-1.5 1.5-1.5s1.5.672 1.5 1.5-.672 1.5-1.5 1.5-1.5-.672-1.5-1.5zm4.5-4.5c.828 0 1.5.672 1.5 1.5s-.672 1.5-1.5 1.5-1.5-.672-1.5-1.5.672-1.5 1.5-1.5zm-20.75-.929h3.431c.403 0 .73.327.73.73v2.477h2.477c.403 0 .73.327.73.73v3.431l-.001.001c0 .403-.327.73-.73.729h-2.477v2.477c0 .403-.327.73-.729.73h-3.431c-.403 0-.73-.327-.73-.73v-2.477h-2.476c-.403 0-.73-.326-.73-.729v-3.431c0-.403.327-.73.73-.73h2.476v-2.478c0-.403.327-.73.73-.73zm20.75 6.929c.828 0 1.5.672 1.5 1.5s-.672 1.5-1.5 1.5-1.5-.672-1.5-1.5.672-1.5 1.5-1.5z" fill="url(#a)" fill-rule="evenodd"/></svg>