<svg height="48pt" viewBox="0 0 48 48" width="48pt" xmlns="http://www.w3.org/2000/svg" xmlns:xlink="http://www.w3.org/1999/xlink"><linearGradient id="a" gradientTransform="matrix(34 0 0 44.201 7 1.9)" gradientUnits="userSpaceOnUse" x1="0" x2="1" y1=".5" y2=".5"><stop offset="0" stop-color="#f237ef"/><stop offset=".98695652174" stop-color="#fc5252"/></linearGradient><path d="m37.049 20.817c.042 1.193-.334 1.773-.673 2.797l-.612.318c-.499 1.014.05.644-.308 1.45-.781.724-2.366 2.265-2.873 2.406-.371-.008.251-.457.332-.632-1.044.748-.838 1.123-2.435 1.579l-.047-.109c-3.937 1.935-9.406-1.899-9.334-7.13-.042.332-.12.249-.207.382-.203-2.691 1.19-5.394 3.54-6.499 2.299-1.187 4.993-.701 6.639.903-.904-1.237-2.704-2.549-4.836-2.427-2.09.035-4.045 1.422-4.698 2.928-1.07.704-1.195 2.714-1.661 3.082-.628 4.818 1.181 6.899 4.24 9.348.48.338.135.39.2.648-1.017-.497-1.947-1.247-2.712-2.166.406.621.844 1.224 1.411 1.698-.959-.338-2.24-2.425-2.613-2.51 1.652 3.089 6.702 5.418 9.347 4.262-1.224.047-2.779.026-4.153-.505-.579-.31-1.363-.952-1.223-1.072 3.609 1.407 7.337 1.065 10.459-1.549.795-.647 1.663-1.746 1.914-1.761-.378.594.065.286-.225.809.79-1.333-.345-.543.817-2.302l.429.617c-.16-1.108 1.317-2.452 1.166-4.202.339-.535.378.577.019 1.808.499-1.366.132-1.586.259-2.713.138.379.321.781.414 1.181-.325-1.32.332-2.223.496-2.99-.162-.074-.502.583-.58-.976.012-.677.181-.355.246-.522-.127-.076-.461-.595-.664-1.591.146-.235.393.607.594.641-.129-.792-.351-1.395-.361-2.003-.586-1.279-.207.171-.682-.549-.623-2.031.518-.472.595-1.394.944 1.429 1.483 3.646 1.731 4.564-.189-1.119-.494-2.204-.867-3.253.288.127-.463-2.302.374-.694-.893-3.428-3.818-6.632-6.51-8.135.329.315.744.71.596.772-1.34-.832-1.104-.897-1.296-1.249-1.09-.463-1.163.038-1.883.001-2.056-1.139-2.452-1.018-4.345-1.731l.086.42c-1.361-.474-1.586.179-3.058.001-.089-.072.472-.264.934-.334-1.317.182-1.255-.271-2.544.05.318-.233.654-.387.993-.584-1.074.068-2.564.652-2.104.12-1.751.816-4.862 1.962-6.607 3.672l-.055-.383c-.8 1.002-3.488 2.994-3.702 4.294l-.214.052c-.416.736-.686 1.57-1.016 2.327-.544.969-.797.373-.72.525-1.071 2.268-1.603 4.172-2.062 5.736.327.511.008 3.076.131 5.129-.537 10.142 6.815 19.987 14.851 22.26 1.178.441 2.929.425 4.419.468-1.757-.525-1.984-.277-3.697-.901-1.235-.608-1.506-1.302-2.381-2.095l.347.639c-1.716-.636-.998-.785-2.394-1.248l.37-.504c-.556-.044-1.473-.978-1.724-1.497l-.609.025c-.73-.941-1.12-1.62-1.091-2.147l-.197.366c-.224-.399-2.691-3.534-1.411-2.803-.238-.226-.554-.369-.896-1.02l.26-.311c-.614-.827-1.133-1.888-1.093-2.242.328.463.556.55.782.63-1.555-4.03-1.643-.222-2.82-4.103l.248-.02c-.19-.302-.307-.627-.46-.948l.109-1.128c-1.119-1.349-.313-5.747-.152-8.16.113-.979.935-2.024 1.561-3.661l-.381-.069c.729-1.327 4.16-5.331 5.75-5.125.77-1.01-.153-.004-.304-.258 1.692-1.828 2.224-1.291 3.365-1.621 1.23-.762-1.056.299-.473-.29 2.128-.568 1.508-1.291 4.284-1.579.293.174-.68.269-.923.495 1.772-.907 5.61-.7 8.103.502 2.892 1.412 6.142 5.585 6.271 9.511l.146.041c-.074 1.561.228 3.367-.297 5.024l.355-.785" fill="url(#a)"/></svg>